<svg width="37" height="37" viewBox="0 0 37 37" fill="none" xmlns="http://www.w3.org/2000/svg">
    <path fill-rule="evenodd" clip-rule="evenodd"
        d="M16.2109 25.1549L19.0536 19.4686L27.5849 19.4679L16.2109 25.1549ZM27.5849 17.3015L19.0544 17.3015L16.2109 11.6145L27.5849 17.3015ZM32.9716 19.1032C33.039 19.0282 33.095 18.9462 33.1379 18.8558C33.1539 18.8244 33.1685 18.793 33.1808 18.7593C33.226 18.6405 33.2566 18.5165 33.2566 18.3847C33.2566 18.2529 33.226 18.1288 33.18 18.0093C33.1685 17.9764 33.1547 17.9458 33.1386 17.9144C33.0942 17.8224 33.0383 17.7389 32.9693 17.6623C32.9532 17.6447 32.9418 17.6256 32.9241 17.6079C32.846 17.5329 32.7579 17.4662 32.6583 17.4157L14.2735 8.22327C13.8553 8.01491 13.3528 8.09611 13.0226 8.42627C12.6925 8.75643 12.6105 9.25972 12.8196 9.6772L17.173 18.3847L12.8196 27.0937C12.6113 27.5104 12.6925 28.013 13.0226 28.3431C13.3528 28.6733 13.8553 28.7545 14.272 28.5461L32.6568 19.3537C32.7571 19.3024 32.8452 19.2373 32.9226 19.1615C32.9418 19.1438 32.954 19.1224 32.9716 19.1032Z"
        fill="#9AADDE" />
</svg>
